<?xml version="1.0" encoding="UTF-8"?>
<svg id="Layer_1" xmlns="http://www.w3.org/2000/svg" version="1.1" viewBox="0 0 595.28 841.89">
  <!-- Generator: Adobe Illustrator 29.6.0, SVG Export Plug-In . SVG Version: 2.1.1 Build 207)  -->
  <defs>
    <style>
      .st0 {
        fill: #0a0203;
      }

      .st1 {
        fill: #fff;
      }

      .st1, .st2 {
        fill-rule: evenodd;
      }

      .st3 {
        fill: #3b3e4b;
      }

      .st4 {
        fill: #9b1f20;
      }
    </style>
  </defs>
  <g>
    <path d="M444.31,289.1c-15.85-15.84-33.82-28.79-53.21-38.59-2.83,2.59-5.38,5.18-7.61,7.74,65.86,31.91,111.31,99.37,111.31,177.5,0,108.88-88.26,197.14-197.14,197.14s-197.17-88.26-197.17-197.14c0-71.94,38.56-134.91,96.17-169.32,6.44-7.82,14.08-15.51,22.5-22.72-25.19,10.29-48.3,25.61-68.11,45.39-39.2,39.15-60.78,91.28-60.78,146.65s21.58,107.49,60.78,146.69c39.13,39.14,91.22,60.71,146.62,60.71s107.45-21.58,146.65-60.71c39.13-39.2,60.71-91.29,60.71-146.69s-21.58-107.5-60.71-146.65Z"/>
    <g>
      <path class="st2" d="M222.11,480.66c-1.2-21.97,32.76-44.64,32.76-44.64-.55-1.09-2.42-2.06-2.42-2.06-23.36,13.4-50.32,16.14-70.98,15.62,6.65,56.21,53.01,100.22,110.24,103.09-47.69-21.34-68.79-56.59-69.61-72Z"/>
      <path class="st2" d="M331.54,545.05c0,.37.06,1.39.11,2.69,1.19-.41,2.32-.72,3.44-1.09-2.08-.95-3.54-1.6-3.54-1.6Z"/>
      <path class="st2" d="M389.76,399.08c-1.53,68.88-10.7,84.47-10.7,84.47-6.45,1.67-14.32-.41-14.32-.41-2.32,12.58,0,31.7,2.66,46.56,28.67-21.33,47.24-55.48,47.24-93.95,0-28.94-10.56-55.43-27.95-75.87,2.18,10.84,3.38,23.79,3.07,39.19Z"/>
    </g>
    <path d="M168.83,518.32c-2.69-4.5-4.74-7.8-6.13-10.05,3.06-1.84,5.25-3.21,6.78-4.09,1.81,2.96,3.17,5.18,4.06,6.68-1.47.89-2.59,1.6-3.34,2.08,1.81,3,3.13,5.19,4.02,6.68,3-1.78,5.25-3.17,6.79-4.09.89-.51,1.5-1.33,1.77-2.39.24-1.06.07-2.01-.47-2.96-3.62-6-6.34-10.5-8.15-13.44-.58-.95-1.37-1.53-2.39-1.77-1.09-.27-2.08-.14-3,.44-2.97,1.77-5.59,3.38-7.84,4.74-2.25,1.36-4.09,2.52-5.6,3.4-.95.55-1.53,1.4-1.8,2.49-.27.99-.06,1.94.51,2.9,2.66,4.5,4.67,7.84,6.07,10.09-3,1.78-5.18,3.17-6.72,4.06-1.8-2.96-3.16-5.22-4.16-6.71,1.57-.96,2.7-1.64,3.41-2.05-1.77-2.97-3.14-5.18-4.02-6.68-3,1.81-5.25,3.14-6.75,4.09-.89.51-1.53,1.29-1.74,2.39-.28,1.09-.11,2.05.44,3,3.58,5.93,6.34,10.43,8.15,13.43.51.92,1.33,1.5,2.49,1.78.95.24,1.98.07,2.9-.48,5.9-3.61,10.43-6.34,13.43-8.19.92-.58,1.57-1.36,1.81-2.38.24-1.02.07-2.08-.51-2.97ZM209.67,541.13c-3.96-3.48-6.88-6.07-8.83-7.84-2.62-2.32-4.57-4.03-5.93-5.18-2.25,2.59-3.99,4.57-5.18,5.87-2.25,2.59-3.98,4.5-5.22,5.9-2.32,2.58-4.02,4.56-5.17,5.86-2.32,2.59-4.33,4.91-6.03,6.86-1.78,1.94-3.24,3.61-4.36,4.91,2.58,2.32,4.53,4.02,5.86,5.22,4.6-5.29,8.04-9.17,10.39-11.8,3.92,3.51,6.89,6.1,8.87,7.87.78.68,1.74,1.02,2.8.95,1.05-.07,2.01-.55,2.73-1.36,4.57-5.18,8.08-9.13,10.43-11.73.72-.82,1.02-1.77,1.02-2.86-.13-1.09-.57-1.98-1.36-2.66ZM197.23,549.24c-.45.41-.72.78-.92,1.02-2.59-2.32-4.6-4.02-5.93-5.22,2.35-2.63,4.06-4.57,5.29-5.9,2.59,2.32,4.6,4.02,5.89,5.25-1.94,2.11-3.41,3.75-4.32,4.84ZM244.96,562.61c-6.38-2.93-11.15-5.08-14.32-6.52-1.02-.47-1.98-.47-3-.1-1.02.41-1.78,1.02-2.18,2.05-2.05,4.47-3.82,8.39-5.32,11.73-1.5,3.34-2.72,6.13-3.75,8.38-2.42,5.39-4.29,9.48-5.48,12.14,3.16,1.43,5.55,2.46,7.19,3.21,2.83-6.37,5.01-11.15,6.44-14.32,3.17,1.43,5.56,2.52,7.16,3.27-2.83,6.34-5.02,11.11-6.48,14.25,3.21,1.44,5.59,2.59,7.2,3.28,6.41-14.35,11.25-25.09,14.49-32.28.44-.99.51-1.95.13-3-.37-.99-1.09-1.7-2.07-2.08ZM235.47,573.99c-.24.58-.44.96-.54,1.3-3.21-1.43-5.59-2.53-7.23-3.28,1.46-3.2,2.55-5.59,3.23-7.23,3.24,1.5,5.6,2.59,7.23,3.3-1.22,2.63-2.11,4.57-2.69,5.9ZM284.97,572.46c-5.21-.65-9.17-1.13-11.76-1.4-3.48-.41-6.07-.75-7.81-.95-.34,3.44-.75,6.48-1.09,9.07-.27,2.66-.55,4.84-.75,6.54-.41,3.41-.75,6.07-.95,7.77-.85,6.95-1.47,12.13-1.84,15.61,3.48.41,6.07.68,7.77.95.79-6.99,1.44-12.17,1.85-15.65,3.48.41,6.07.71,7.87.92-.85,6.96-1.5,12.21-1.9,15.61,3.44.41,6.03.72,7.73.96.89-6.95,1.54-12.14,1.91-15.61.14-1.09-.14-2.08-.78-2.87-.68-.88-1.53-1.39-2.59-1.53,1.05.13,2.01-.1,2.93-.78.79-.62,1.3-1.57,1.37-2.59.64-5.18,1.12-9.14,1.46-11.73.07-1.09-.17-2.04-.82-2.93-.64-.78-1.53-1.3-2.59-1.4ZM279.35,586.2c-.14.61-.14,1.09-.21,1.43-3.48-.48-6.07-.78-7.77-.99.37-3.51.64-6.1.89-7.81,3.54.41,6.1.71,7.84.92-.3,2.86-.65,5.01-.75,6.45ZM330.07,569.36c-3.86.71-11.59,2.04-23.15,4.19.1.61.24,1.6.51,2.9.24,1.3.55,2.9.85,4.81,1.3-.21,3.89-.72,7.7-1.4.95,5.18,2.83,15.47,5.66,30.89,1.29-.21,3.88-.69,7.74-1.4-.92-5.08-2.8-15.44-5.63-30.89,1.7-.31,4.3-.78,7.67-1.39-.28-1.7-.72-4.3-1.37-7.7ZM367.78,555.21c-1.02-.31-2.01-.17-3,.31-6.2,3.27-10.81,5.69-13.88,7.26-.99.51-1.63,1.29-1.94,2.31-.34,1.06-.27,2.08.24,3,2.25,4.33,4.3,8.15,5.96,11.42,1.71,3.23,3.17,5.89,4.3,8.11,2.76,5.25,4.8,9.17,6.17,11.79,3.07-1.64,5.42-2.86,6.95-3.68-3.23-6.21-5.69-10.81-7.29-13.91,3.1-1.6,5.45-2.8,6.98-3.69,3.24,6.27,5.66,10.88,7.3,13.95,3.07-1.61,5.42-2.83,6.96-3.66-7.33-13.87-12.82-24.33-16.5-31.29-.47-.96-1.23-1.57-2.25-1.95ZM361.67,574.95c-1.7-3.14-2.93-5.46-3.71-6.96,3.13-1.7,5.49-2.9,6.98-3.71,1.33,2.56,2.35,4.47,3.04,5.76.27.54.48.95.64,1.22-3.06,1.6-5.42,2.8-6.96,3.69ZM400.1,528.93c-1.09.07-1.98.41-2.73,1.16-3.82,3.71-6.55,6.48-8.42,8.39-2.42,2.45-4.3,4.29-5.49,5.52,6.14,6.14,11.56,11.59,16.19,16.15,4.6,4.64,8.45,8.53,11.52,11.59,2.49-2.46,4.33-4.29,5.56-5.52-9.89-9.88-17.28-17.28-22.19-22.22,2.42-2.52,4.3-4.33,5.56-5.6,9.81,9.89,17.28,17.32,22.23,22.3,2.42-2.49,4.29-4.36,5.48-5.59-11.07-11.04-19.43-19.43-24.91-25.02-.82-.75-1.7-1.09-2.8-1.16ZM455.93,511.47c-.34-1.02-.99-1.77-1.94-2.25-6.18-3.24-10.77-5.73-13.91-7.33-.95-.51-1.98-.61-2.93-.31-1.06.35-1.81.99-2.35,1.91-2.46,4.63-4.26,8.15-5.49,10.43-3.11-1.57-5.45-2.8-6.96-3.68,1.57-3.1,2.83-5.38,3.65-6.95,1.53.82,2.69,1.43,3.48,1.84,1.67-3.07,2.86-5.38,3.65-6.95-3.03-1.57-5.38-2.8-6.95-3.61-.96-.48-1.91-.62-2.97-.35-1.02.35-1.77.99-2.28,1.91-3.24,6.2-5.73,10.84-7.37,13.94-.47.99-.61,1.97-.3,2.96.34,1.09.95,1.81,1.94,2.32,3.07,1.64,5.73,3.07,8.08,4.3,2.35,1.22,4.26,2.25,5.83,3.06.99.51,1.94.58,3,.27,1.02-.27,1.81-.98,2.32-1.97,2.42-4.6,4.26-8.08,5.45-10.36,3.14,1.6,5.43,2.87,7.03,3.61-1.67,3.14-2.9,5.46-3.68,7.02-1.53-.82-2.76-1.43-3.47-1.84-1.65,3.06-2.87,5.38-3.66,6.95,3.07,1.6,5.32,2.8,6.92,3.61.95.55,1.98.62,2.94.27,1.12-.3,1.87-.95,2.35-1.9,3.31-6.17,5.73-10.77,7.4-13.91.48-.92.54-1.95.24-3Z"/>
    <path d="M150.73,483.92c0,2.29-1.85,4.09-4.16,4.09s-4.12-1.81-4.12-4.09,1.87-4.19,4.12-4.19,4.16,1.88,4.16,4.19Z"/>
    <path d="M452.83,483.92c0,2.29-1.8,4.09-4.13,4.09s-4.19-1.81-4.19-4.09,1.84-4.19,4.19-4.19,4.13,1.88,4.13,4.19Z"/>
    <path d="M150.39,400.37c-.24-.32-.58-.57-.99-.65-1.6-.32-3.06-.6-4.36-.85-1.16-.24-2.18-.44-3-.6-2.01-.41-3.48-.7-4.47-.9-.37-.07-.79,0-1.12.26-.41.24-.55.53-.64.98-.52,2.62-.89,4.56-1.2,5.86-.07.45,0,.82.24,1.14.24.36.55.56.96.68,1.29.2,2.28.41,2.93.56.31-1.33.48-2.3.64-3-.74-.12-1.19-.19-1.53-.28.27-1.3.47-2.27.64-2.97,3.92.81,6.86,1.38,8.8,1.79-.24,1.29-.38,2.3-.55,2.95-.64-.12-1.13-.21-1.5-.28-.24,1.29-.44,2.27-.62,2.95,1.33.24,2.36.44,3,.61.41.04.82,0,1.12-.23.34-.26.59-.58.65-.98.51-2.64.89-4.62,1.19-5.92.04-.41,0-.76-.2-1.14ZM135.36,420.45c2.01.13,6.03.46,12.07.9.03-.49.06-1.5.2-3l-5.59-.41c-2.56-.21-5.66-.44-9.44-.73,0,.14-.04.41-.04.78-.04.36-.07,1.09-.21,2.22-.03,1.02-.21,3.03-.44,6.03.68.05,1.7.12,3,.21.06-1.33.24-3.33.44-6ZM147.04,445.97c-.06-1.33-.06-2.35-.1-3-5.35.26-9.41.41-12.07.58-.04-1.35-.14-2.35-.14-3.05,5.35-.27,9.37-.44,12.04-.56-.04-1.33-.14-2.35-.14-3-3.03.12-5.66.26-7.91.37-2.28.12-4.12.21-5.69.24-.38.04-.72.21-.96.53-.34.32-.41.65-.41,1.05.07,2.71.24,4.69.24,6.07.1.41.23.73.57,1,.24.29.64.41,1.05.38,5.97-.26,10.5-.5,13.5-.62ZM147.93,455.48c-1.33.2-2.32.37-2.96.49-.65.12-1.23.24-1.71.33-.54.08-.95.15-1.26.21-1.33.24-2.32.39-2.96.53-1.33.19-2.36.36-3,.47-1.3.24-2.29.41-3,.53.3,1.33.41,2.3.58,2.95.34,2.03.58,3.49.71,4.46.1.44.34.71.65.97.34.28.72.32,1.15.28,1.95-.33,3.48-.6,4.44-.8.41-.05.75-.24.99-.61.24-.32.31-.68.24-1.09.07.41.27.73.61.97.34.24.72.29,1.12.24,1.98-.36,3.45-.6,4.47-.76.44-.09.75-.28.95-.6.27-.37.38-.73.27-1.14-.38-1.94-.62-3.44-.79-4.45-.24-1.34-.41-2.35-.51-2.97ZM137.57,463.39c-.24.04-.37.07-.51.07-.2-1.3-.37-2.3-.51-2.96,1.33-.24,2.29-.41,2.97-.53.27,1.33.41,2.31.54,2.96-1.09.2-1.9.32-2.49.46ZM143.53,462.33c-.2.08-.41.12-.51.12-.27-1.35-.41-2.32-.51-3,1.29-.21,2.28-.41,2.93-.53.27,1.34.45,2.35.55,3-1.09.16-1.88.33-2.46.41Z"/>
    <path d="M460.37,455.27c-1.95-.24-3.44-.44-4.43-.56-.41-.04-.82.05-1.09.29-.37.27-.55.6-.62,1.05.07-.46,0-.82-.3-1.14-.24-.33-.58-.53-.99-.56-1.94-.24-3.48-.41-4.5-.56-.38-.05-.78.04-1.09.27-.34.29-.47.61-.58,1.02-.24,1.98-.41,3.48-.54,4.53-.17,1.3-.31,2.27-.37,2.95,1.33.17,2.32.29,2.96.36.68.08,1.3.17,1.77.2.47.08.89.12,1.23.2,1.32.12,2.32.29,2.96.38,1.3.15,2.35.27,3,.35,1.39.16,2.35.29,3,.41.17-1.34.24-2.35.37-3,.27-2.03.45-3.53.59-4.54.03-.37-.07-.76-.31-1.09-.27-.32-.61-.49-1.05-.58ZM452.19,460.34c-1.34-.16-2.35-.27-3.01-.39.17-1.35.31-2.32.37-3,1.09.16,1.91.24,2.49.33.24.03.41.03.51.08-.1,1.33-.27,2.3-.37,2.98ZM458.18,461.07c-1.32-.12-2.35-.29-3-.36.17-1.34.31-2.35.37-3,1.09.12,1.91.24,2.46.29.27.03.41.07.51.12-.17,1.3-.24,2.3-.35,2.95ZM462.85,438.93v-3.03c-2.69,0-4.7,0-6.03-.05-.41,0-.79.17-1.09.44-.24.33-.41.65-.44,1.05.03-.41-.1-.76-.41-1.09-.31-.24-.65-.41-1.06-.41-2,0-3.58-.03-4.54-.03-.41,0-.79.12-1.05.41-.34.33-.44.65-.44,1.09-.03,1.98-.03,3.51-.03,4.54,0,1.33,0,2.35-.03,3h3.51c1.02.03,1.88.03,2.56.03h2.93c2.69.04,4.7.04,6.1.09v-3.06c-2.73,0-4.7,0-6.03-.03,0-1.33,0-2.35.03-3.03,2.66.04,4.7.04,6.03.08ZM453.82,441.87c-1.36-.03-2.38-.03-3.06-.03,0-1.34.03-2.35.03-3h3.03v3.03ZM446.97,418.39c-.24.32-.37.7-.27,1.09.27,2.68.47,4.67.64,6,.03.41.24.74.55,1.01.34.26.71.37,1.05.33,1.9-.19,3.58-.36,4.94-.51,1.43-.17,2.56-.33,3.48-.41,2.28-.24,3.98-.45,5.11-.53-.16-1.38-.24-2.35-.31-3-2.69.29-4.7.49-6,.65-.18-1.33-.24-2.35-.34-3,2.69-.32,4.67-.53,6-.68-.17-1.3-.27-2.3-.31-2.95-6,.65-10.5,1.13-13.53,1.45-.41.09-.75.24-1.02.56ZM452.29,420.38c.24-.05.44-.05.54-.05.14,1.35.27,2.32.34,3-1.35.17-2.35.24-3,.32-.17-1.33-.23-2.35-.33-3,1.06-.12,1.98-.21,2.45-.28ZM448.16,408.59c-.14-.48-.34-1.45-.71-2.92,2.01-.48,5.9-1.36,11.79-2.75-.17-.44-.41-1.46-.71-2.92-1.95.44-5.9,1.33-11.77,2.71-.16-.65-.41-1.65-.65-2.95-.68.15-1.6.39-2.93.72.34,1.47.99,4.39,2.04,8.8.21-.09.58-.17,1.09-.29.44-.08,1.09-.24,1.84-.41ZM454.94,386.94c-.47-1.47-.81-2.4-.95-2.88-1.8.6-2.94,1.01-3.54,1.21-5.39,1.82-8.93,3.03-10.7,3.61.47,1.41.77,2.39.95,2.86,3.17-1.09,5.96-2.03,8.32-2.83,2.39-.82,4.36-1.5,5.93-1.97ZM443.52,377.21c.34-.15.65-.44.82-.85.14-.35.14-.76-.06-1.12-.82-1.83-1.44-3.21-1.88-4.13,1.22-.53,2.15-.97,2.76-1.26.54,1.26.95,2.15,1.26,2.76-.62.27-1.12.48-1.37.65.55,1.21.95,2.13,1.23,2.71,1.23-.53,2.11-.93,2.73-1.22.34-.15.68-.48.75-.84.17-.41.17-.79,0-1.18-1.12-2.44-1.95-4.26-2.52-5.47-.14-.41-.44-.65-.78-.82-.41-.12-.82-.12-1.16.05-2.46,1.13-4.26,1.95-5.49,2.51-.41.17-.65.44-.82.82-.1.39-.1.76.11,1.12.78,1.86,1.43,3.24,1.84,4.18-1.19.56-2.18.97-2.76,1.24-.58-1.21-.95-2.18-1.22-2.74.58-.29,1.02-.5,1.33-.64-.48-1.21-.95-2.12-1.23-2.76-1.19.58-2.11,1.02-2.76,1.26-.34.21-.65.5-.78.85-.14.41-.11.77.06,1.13,1.09,2.47,1.94,4.29,2.52,5.52.14.36.41.65.78.77.41.15.79.15,1.17,0,1.19-.59,2.28-1.06,3.21-1.5.92-.41,1.67-.73,2.28-1.02ZM441.85,356.4c-.07-.07-.17-.27-.34-.6-.24-.32-.58-.97-1.19-1.94-.51-.85-1.57-2.59-3.11-5.15-.58.32-1.47.85-2.59,1.53.72,1.15,1.77,2.88,3.17,5.15-1.7,1.06-5.22,3.15-10.4,6.28.27.44.82,1.26,1.6,2.56,1.09-.65,2.65-1.62,4.8-2.92,2.11-1.3,4.87-2.92,8.05-4.91ZM429.51,337.49c-2.12,1.66-3.72,2.92-4.77,3.73-.82-1.05-1.47-1.87-1.88-2.4,2.11-1.65,3.75-2.87,4.81-3.68-.82-1.09-1.47-1.86-1.88-2.38-4.74,3.73-8.32,6.53-10.7,8.34-.31.26-.51.61-.55,1.02-.11.41.04.77.31,1.09,1.64,2.1,2.83,3.72,3.68,4.74.31.36.62.53,1.02.6.41.05.82-.07,1.12-.32,1.47-1.16,2.76-2.13,3.86-3.03,1.09-.85,2.08-1.57,2.8-2.15,1.77-1.41,3.14-2.45,4.02-3.15-.81-1.06-1.43-1.82-1.84-2.39ZM420,344.94c-.85-1.09-1.47-1.86-1.88-2.39.93-.68,1.57-1.21,2.02-1.53.13-.17.27-.25.41-.32.79,1.04,1.4,1.86,1.84,2.38-1.05.8-1.84,1.45-2.39,1.86ZM414.17,319.92c-6.75,3.86-11.28,6.45-13.56,7.74,1.23,1.18,2.04,1.97,2.38,2.35,4.67-3.05,7.81-5.06,9.3-6.09-3.03,4.66-5.08,7.78-6.1,9.33,1.22,1.16,2,1.97,2.42,2.33,3.41-5.98,6-10.52,7.71-13.51-1.05-1.09-1.77-1.82-2.15-2.15ZM401.35,308.35c-1.63,2.1-2.86,3.68-3.71,4.74-1.09-.85-1.81-1.46-2.39-1.88,1.67-2.1,2.94-3.72,3.75-4.77-1.05-.82-1.88-1.41-2.35-1.82-3.75,4.74-6.51,8.27-8.39,10.69-.27.32-.37.7-.27,1.09,0,.41.24.73.55.97,2.11,1.67,3.64,2.92,4.7,3.74.3.29.71.35,1.12.32.41-.03.74-.24,1.02-.56,1.16-1.47,2.15-2.8,3.03-3.88.85-1.11,1.53-2.03,2.15-2.76,1.43-1.82,2.45-3.15,3.17-4.06-1.02-.8-1.84-1.42-2.39-1.81ZM393.96,317.8c-1.05-.8-1.84-1.45-2.42-1.85.71-.89,1.22-1.54,1.53-1.95.17-.21.24-.36.34-.44,1.05.82,1.84,1.47,2.42,1.86-.88,1.06-1.46,1.88-1.87,2.38Z"/>
  </g>
  <path class="st1" d="M252.46,433.95s1.87.97,2.42,2.06c0,0-33.95,22.67-32.76,44.64,1.05,19.29,33.71,69.61,110.68,84.85,0,0-1.26-18.38-1.26-20.45,0,0,12.13,5.69,18.44,6.99h22.12s-11.66-45.55-7.37-68.9c0,0,7.88,2.08,14.32.41,0,0,9.17-15.6,10.7-84.47,1.53-68.83-28.71-88.92-28.71-88.92,0,0,5.94,1.79,10.64,5.35,0,0-28.91-52.95,67.64-94.26,0,0-39.21-22.1-111.06-22.51-76.02-.48-157.12,74.62-155.69,122.12,0,0,45.17-29.32,63.47-32.4v4.5s-59.99,24.05-61.86,78.71c-1.3,23.23,1.19,27.53,1.22,37.77,0,10.18-12.24,32.03-27.07,36.41,0,0,58.87,14.09,104.11-11.9Z"/>
  <g>
    <path class="st0" d="M382.4,387.98c-.21-5.63-.65-11.25-1.4-16.85-.65-5.59-1.61-11.13-3-16.64-1.36-5.5-3.14-10.94-5.45-16.12-2.35-5.18-5.38-10.07-9.07-14.49-1.81-2.18-3.81-4.21-5.99-6.12-2.15-1.86-4.4-3.56-6.76-5.15-4.7-3.15-9.71-5.66-14.66-8.21-5.15-2.59-10.53-4.13-15.99-5.39-10.91-2.47-22.12-3.48-33.2-3.44-11.22.05-22.33,1.26-33.1,3.82,10.88-2.27,21.96-3.21,33.07-2.97,5.52.08,11.08.53,16.5,1.26,5.52.69,10.94,1.71,16.29,3.06,5.28,1.44,10.6,3.13,15.37,5.68,4.88,2.68,9.71,5.35,14.15,8.51,4.43,3.12,8.45,6.8,11.79,11.04,3.31,4.21,6.04,8.91,8.11,13.94,2.05,4.97,3.61,10.19,4.74,15.54,1.13,5.33,1.95,10.77,2.42,16.19.44,5.47.68,10.92.75,16.43.07,5.51-.1,11.03-.37,16.48l-.54,8.3-.89,8.15c-.55,5.46-1.37,10.93-2.12,16.4-.37,2.74-.89,5.42-1.36,8.13l-.64,4.06-.82,4.04c-.48,2.68-1.09,5.35-1.74,7.98-.27,1.38-.69,2.64-.99,3.88-.07.29-.13.53-.27.85-.06,0-.14-.03-.31-.03-.65.03-1.22,0-1.84-.03-.58-.06-1.23-.09-1.84-.14-1.26-.12-2.48-.27-3.72-.51-1.22-.2-2.48-.49-3.71-.78-2.42-.65-4.84-1.48-7.26-2.46-1.7-.73-3.41-1.55-5.11-2.41,1.29-1.33,2.59-2.58,4.02-3.83,1.98-1.79,4.1-3.57,5.94-5.76.98-1.09,1.77-2.27,2.59-3.44.78-1.16,1.46-2.42,2.11-3.68,1.29-2.54,2.22-5.18,3.07-7.81.82-2.67,1.53-5.35,2.11-8.03.34-1.33.61-2.66.85-4,.28-1.33.45-2.71.79-4.04.47-2.67.92-5.35,1.32-8.06.45-2.67.85-5.39,1.27-8.06l.31-2.21-2.35-1.82h0c-1.57-.94-3.11-1.88-4.7-2.71-1.61-.9-3.24-1.67-4.85-2.47-1.63-.73-3.24-1.5-4.87-2.2-1.71-.69-3.31-1.33-5.02-1.98-6.68-2.47-13.43-4.41-20.32-5.95-6.89-1.55-13.81-2.67-20.73-3.5-3.48-.35-6.99-.71-10.47-.92-3.48-.21-6.91-.38-10.43-.38h-.48l-.27.26h0c-1.77,1.57-3.13,3.48-4.3,5.51-1.12,1.98-1.94,4.09-2.65,6.24-.72,2.13-1.3,4.32-1.74,6.55-.21,1.1-.38,2.23-.59,3.32-.1,1.15-.27,2.18-.38,3.41l-.06.39.24.32h0c.85,1.05,1.68,2.2,2.53,3.2.89,1.09,1.87,2.07,2.76,3.09.95,1.01,1.95,1.97,2.9,2.91,1.02.93,2.04,1.82,3.1,2.75,4.12,3.56,8.52,6.77,13.16,9.68,4.56,2.95,9.33,5.62,14.21,8.1,2.42,1.21,4.84,2.38,7.36,3.53,1.3.56,2.49,1.09,3.78,1.57.28.17.52.26.79.38l-1.26,3.44c-.74,2.07-1.47,4.16-2.11,6.28-.68,2.06-1.39,4.21-2.01,6.27l-1.87,6.41c-.65,2.09-1.13,4.24-1.7,6.39-.55,2.1-1.16,4.24-1.61,6.45l-1.56,6.44-1.43,6.41c-.48,2.18-.89,4.36-1.33,6.54-.44,2.18-.85,4.33-1.26,6.51-.82,4.33-1.53,8.7-2.25,13.13-.65,4.33-1.68,10.98-1.91,13.2-.96-.24-11.77-4.06-22.95-9.72-5.52-2.86-10.94-6.2-16.12-9.81-5.12-3.62-10.06-7.64-14.49-12.07-2.21-2.21-4.33-4.5-6.28-6.89-.47-.58-.92-1.09-1.4-1.84l-.75-.95c-.21-.21-.34-.51-.51-.75-.65-.95-1.12-2.04-1.46-3.14-.65-2.32-.65-4.98,0-7.76.58-2.8,1.74-5.59,3.2-8.34,2.93-5.47,6.92-10.65,11.25-15.47,2.18-2.47,4.5-4.77,6.85-7.04,2.35-2.27,4.87-4.5,7.36-6.57l.99-.8-.74-.82c-.47-.65-.95-1.32-1.54-1.94-.47-.65-1.05-1.21-1.67-1.82-.27-.27-.59-.56-.82-.85-.34-.27-.65-.56-.99-.8-.59-.56-1.23-1.06-1.88-1.53-1.3-1.02-2.66-1.91-4.02-2.76-.75-.36-1.4-.76-2.15-1.18-.75-.36-1.43-.73-2.25-1.05l-.41-.21-.55.21c-1.53.64-3.03,1.38-4.64,1.99-1.53.6-3.06,1.21-4.6,1.74-1.53.56-3.16,1.09-4.74,1.53-1.57.53-3.2.94-4.74,1.38-1.6.44-3.24.76-4.84,1.18-1.63.41-3.24.65-4.88.98-1.57.36-3.24.56-4.87.8-1.6.29-3.27.46-4.91.7-1.64.15-3.34.27-4.9.44-1.67.15-3.28.24-4.94.32-1.68.15-3.27.15-4.92.21-1.7.03-3.3,0-4.97,0s-3.27-.05-4.95-.12c-1.6-.08-3.27-.12-4.91-.29-1.19-.08-2.42-.2-3.68-.29.21-.51.52-1.04.72-1.61.37-.89.75-1.78,1.09-2.72.57-1.77,1.09-3.68,1.56-5.5.45-1.86.79-3.72.92-5.6.44-3.71.37-7.45,0-11.13-.21-1.83-.51-3.65-.85-5.42-.24-1.79-.51-3.53-.75-5.3-.44-3.58-.79-7.14-.95-10.74-.07-1.74-.07-3.57-.13-5.35.06-1.77.06-3.6.21-5.38.03-1.81.27-3.57.44-5.37.21-1.75.41-3.53.69-5.32.23-1.77.61-3.56.92-5.3.34-1.74.82-3.53,1.23-5.26l-.24-.04c-.44,1.71-.99,3.45-1.4,5.22-.41,1.75-.78,3.49-1.12,5.27-.41,1.79-.61,3.56-.89,5.35-.24,1.77-.47,3.6-.64,5.42-.17,1.79-.27,3.56-.41,5.39-.07,1.82-.11,3.64-.11,5.42,0,3.65.11,7.26.45,10.89.1,1.79.31,3.61.47,5.39.24,1.82.31,3.56.31,5.31.11,3.48-.24,7-.95,10.36-.68,3.4-1.78,6.63-3.38,9.64-1.5,3-3.48,5.71-5.83,8.06h0l-3.74,4.57,5.65.29,5.12.24c1.7.12,3.44.09,5.07.12,1.74.05,3.52.05,5.15-.03,1.7,0,3.45-.05,5.12-.17,1.74-.06,3.41-.15,5.15-.32,1.71-.15,3.38-.24,5.05-.47,1.74-.21,3.38-.38,5.08-.65,1.7-.24,3.38-.5,5.04-.82,1.67-.27,3.38-.6,4.98-.98,1.67-.36,3.34-.68,4.98-1.12,1.67-.44,3.34-.82,4.94-1.3,1.6-.53,3.28-.93,4.88-1.5,1.6-.56,3.2-1.09,4.8-1.7,1.63-.62,3.16-1.21,4.74-1.91,1.57-.6,3.14-1.33,4.67-2.06,1.37-.6,2.7-1.3,4.03-2.01.54.24,1.05.48,1.57.77.72.36,1.36.72,2.01,1.12,1.29.77,2.59,1.62,3.81,2.56.64.44,1.23.92,1.78,1.41.31.24.61.53.89.77.24.29.58.49.81.82.55.53,1.05,1.04,1.57,1.65.21.29.44.53.68.85-2.49,1.62-4.94,3.33-7.29,5.09-2.63,2.03-5.25,4.15-7.84,6.41-5.05,4.45-9.89,9.31-13.94,15.14-2.01,2.92-3.82,6.07-5.12,9.63-1.3,3.56-2.01,7.72-1.37,11.95.34,2.05,1.02,4.16,2.01,6.07.21.55.44.95.75,1.47l.58,1.09c.41.71.89,1.47,1.37,2.28,1.94,3,3.99,5.86,6.17,8.66,4.36,5.45,9.24,10.5,14.42,15.17,5.21,4.71,10.67,8.97,16.43,12.99,11.51,7.88,24.03,14.45,37.5,19.3h0l14.28,3.4-.68-13.33c-.17-2.01-.2-4.19-.31-6.24,0-.96,0-1.98-.04-2.97,2.05,1.3,4.06,2.49,6.18,3.52,3.41,1.8,6.88,3.27,10.39,4.57,1.77.61,3.51,1.19,5.32,1.77l2.72.82c.95.27,1.81.48,2.86.75h0l10.84.82-1.7-8.63c-.31-1.5-.52-2.97-.72-4.4-.31-1.5-.51-2.93-.72-4.43l-.51-4.43c-.21-1.43-.44-2.9-.57-4.36l-.65-8.8c-.24-3-.35-5.93-.48-8.9l-.27-8.76c-.13-3-.03-5.9-.03-8.87.03-2.93.06-5.86.24-8.81l.17-2.47c.37.17.82.33,1.29.49,1.36.45,2.69.89,4.12,1.25.72.21,1.37.33,2.08.5.74.15,1.43.32,2.15.44.75.09,1.43.24,2.15.32l2.18.24h0l3.24.05.99-3c.24-.85.44-1.53.64-2.27.17-.73.31-1.41.48-2.11.34-1.42.65-2.83.89-4.24.51-2.8,1.02-5.6,1.43-8.34l.65-4.22.51-4.16c.31-2.8.75-5.59.99-8.35.58-5.57,1.13-11.13,1.54-16.72l.57-8.46.24-8.35c.04-5.66.04-11.25-.24-16.84ZM304.4,384.26c6.71,1.37,13.36,3.07,19.84,5.09,6.47,2.06,12.78,4.5,18.89,7.37,1.53.73,3.07,1.47,4.53,2.27,1.5.73,2.9,1.59,4.37,2.4,1.47.84,2.86,1.69,4.19,2.66.75.41,1.47.94,2.21,1.43,0,1.74.07,3.51.07,5.25,0,2.67-.07,5.27-.17,7.94-.17,2.59-.37,5.22-.69,7.81-.16,1.3-.37,2.59-.51,3.89-.21,1.18-.41,2.35-.71,3.58l-6.07-2.08c-2.8-.92-5.45-1.98-8.25-2.95-1.32-.53-2.76-1-4.09-1.53l-4.06-1.62c-1.37-.58-2.69-1.09-4.06-1.7l-3.99-1.7c-2.73-1.13-5.32-2.42-7.95-3.68l-3.85-2.03c-1.3-.65-2.53-1.42-3.74-2.1-1.3-.7-2.49-1.55-3.76-2.27-1.19-.78-2.28-1.61-3.51-2.43-1.09-.89-2.18-1.77-3.2-2.75-.51-.46-.95-1.03-1.4-1.5-.17-.25-.41-.49-.58-.78-.07-.16-.24-.44-.27-.51l.04-1.18.17-1.35c.21-.97.37-1.86.65-2.8.21-.92.48-1.86.75-2.78.31-.9.65-1.82.99-2.73.68-1.82,1.39-3.6,2.21-5.39.65-1.29,1.3-2.59,1.95-3.83ZM350.76,469.37l-.78,4.45c-.48,2.94-.92,5.91-1.3,8.88-.34,2.94-.75,5.9-1.09,8.9l-.96,8.9c-.34,2.93-.61,5.93-.82,8.87l-.68,8.93-.48,8.73c-.31-.03-.54-.06-.82-.1-3.24-.65-6.41-1.4-9.48-2.42-3-.99-5.89-2.18-8.45-3.68-.89-.55-1.74-1.09-2.53-1.71.03-1.02.03-1.97.03-2.96.11-4.29.21-8.59.41-12.88.03-2.15.17-4.26.34-6.37.07-2.18.24-4.3.41-6.48l.47-6.41.55-6.41c.2-2.15.51-4.28.74-6.39.24-2.11.47-4.3.82-6.39l.89-6.36c.31-2.15.72-4.26,1.09-6.36.34-2.15.68-4.26,1.16-6.36l1.29-6.32h0l.82-3.15-2.83-.85c-1.23-.32-2.53-.76-3.72-1.21l-3.75-1.3c-2.45-.93-4.94-1.91-7.37-2.97-4.84-2.01-9.68-4.32-14.31-6.83-4.64-2.56-9.07-5.35-13.33-8.54-1.02-.78-2.08-1.59-3.04-2.43-1.09-.8-2.04-1.7-3-2.59-.99-.89-1.95-1.82-2.83-2.75-.85-.85-1.63-1.79-2.39-2.64.11-.94.21-1.91.34-2.83.14-1.06.34-2.15.55-3.2.44-2.1.92-4.25,1.6-6.28.68-2.06,1.5-4.09,2.56-5.95.92-1.7,2.11-3.32,3.48-4.61,3.24.29,6.61.68,9.83,1.17,2.48.41,5.04.85,7.59,1.33-.58,1.14-1.05,2.27-1.5,3.41-.75,1.82-1.5,3.64-2.21,5.51-.65,1.86-1.3,3.77-1.88,5.71-.27.97-.48,1.94-.72,2.95l-.24,1.53-.11,1.58v.24c.21.73.41,1.02.61,1.38.21.41.45.74.68,1.09.48.61.99,1.23,1.54,1.79,1.05,1.13,2.18,2.15,3.34,3.12,1.19.92,2.35,1.9,3.54,2.71,1.26.89,2.49,1.74,3.75,2.56,1.3.76,2.49,1.62,3.78,2.34l3.89,2.23,3.85,2.15c1.33.68,2.62,1.38,3.96,2.03l3.99,2.01c1.3.7,2.62,1.26,3.96,1.91l4.02,1.91c1.37.6,2.7,1.18,4.06,1.82,2.73,1.18,5.38,2.47,8.11,3.56l6.41,2.71c-.2.48-.37.97-.51,1.45-.51,1.14-.99,2.32-1.63,3.38-.65,1.09-1.33,2.13-2.11,3.1-1.53,1.95-3.37,3.77-5.32,5.56-2.05,1.82-4.06,3.72-5.9,5.83h0l-1.37,1.29 1.74,1.33c2.18,1.67,4.4,3.29,6.82,4.79,1.43.89,2.9,1.69,4.43,2.47,0,.04-.04.12-.04.16Z"/>
  </g>
  <path class="st4" d="M377.35,228.34s-4.53-1.91-6.3-2.47c0,0-2.8,1.62-3.41,2.34,0,0-.31-2.54.17-3.28,0,0-2.59-.85-4.12-1.3,0,0-9.95,9.11-12.4,13.89,0,0,4.02-11.45,6.95-15.1,0,0-9.03-2.2-16.91-2.85,0,0-3.07,3.65-3.51,5.76,0,0,.03-4.7.27-6.12,0,0-3.72-.76-24.79-.2,0,0-1.12,3.89-1.29,5.27,0,0-.68-4.05-.58-5.06,0,0-10.67.94-13.53,1.5,0,0-1.2,7.21-1.27,10.69,0,0-1.7-6.48-1.7-10.13,0,0-11.15,1.94-14.01,2.79,0,0-1.05,4.06-1.15,5.51,0,0-.72-3.92-.62-4.94,0,0-12.24,2.88-27.3,8.71.44-.24.89-.53,1.36-.73-1.84.93-3.61,1.91-5.45,2.91-3.55,2.03-7.09,4.18-10.47,6.48-3,1.99-5.83,4.09-8.62,6.24-6.13,4.97-10.8,9.16-10.8,9.16,15.51-10.72,33.67-11.01,33.67-11.01,3.92,14.54,3.79,36.8,3.75,40.32,1.75-.47,3.45-1.01,5.22-1.41,2.11-.56,4.3-1.14,6.58-1.62,2.15-.53,4.36-.98,6.54-1.41,1.67-.38,3.34-.62,4.94-.9-.1-12.78,5.93-23.64,5.93-23.64-.75,3.89-1.05,17.81-1.16,22.93,1.23-.21,2.46-.38,3.76-.53,2.25-.29,4.49-.53,6.75-.74,2.28-.24,4.54-.35,6.82-.53,7.97-.41,15.99-.32,24,.29,1.6-4.41,6.54-11.83,6.54-11.83-1.64,4.98-1.94,9.8-1.84,12.27,1.84.21,3.71.41,5.59.65,2.25.36,4.53.68,6.81,1.13,1.84.37,3.68.78,5.55,1.23-.64-.17-1.29-.29-1.94-.44,1.26-9.45,6.92-33.65,31.98-53.81Z"/>
  <path class="st1" d="M309.55,494.97c.44-2.18.85-4.36,1.33-6.54l1.43-6.41,1.56-6.44c.45-2.2,1.06-4.35,1.61-6.45.57-2.15,1.05-4.3,1.7-6.39l1.87-6.41c.62-2.06,1.33-4.21,2.01-6.27.65-2.12,1.37-4.21,2.11-6.28l1.26-3.44c-.27-.12-.51-.21-.79-.38-1.29-.47-2.48-1-3.78-1.57-2.52-1.14-4.94-2.32-7.36-3.53-4.88-2.47-9.65-5.15-14.21-8.1-4.64-2.92-9.04-6.12-13.16-9.68-1.06-.92-2.08-1.82-3.1-2.75-.95-.94-1.95-1.91-2.9-2.91-.89-1.02-1.87-2-2.76-3.09-.82-.92-1.53-1.98-2.32-3,1.02,2.91,7.77,19.32,41.69,37.7,0,0-15.71,44.29-11.59,84.1.41-2.66,1.26-8.59,1.88-12.55.71-4.43,1.42-8.8,2.25-13.13.41-2.18.82-4.32,1.26-6.51Z"/>
  <path class="st1" d="M363.24,466.16c.61.05,1.26.08,1.84.14.62.03,1.19.07,1.84.03.17,0,.24.03.31.03.14-.33.21-.56.27-.85.31-1.24.72-2.5.99-3.88.65-2.63,1.26-5.3,1.74-7.98l.82-4.04.64-4.06c.47-2.71.99-5.38,1.36-8.13.75-5.47,1.57-10.94,2.12-16.4l.89-8.15.54-8.3c.07-1.53.11-3.07.2-4.65l-.1.32c-2.8,40.21-14.01,60.14-17.39,65.36.06,0,.11.04.2.04,1.23.24,2.46.39,3.72.51Z"/>
  <path class="st1" d="M188.6,431.07s6.17-6.07,5.89-17.21c-.24-11.13-2.45-18.1-2.45-29.47-.03-11.42,0-87.75,93.34-87.75,0,0-82.12-4.7-99.37,59.43-.27,1.18-.58,2.44-.82,3.64-.31,1.74-.69,3.53-.92,5.3-.27,1.79-.48,3.57-.69,5.32-.17,1.81-.41,3.56-.44,5.37-.14,1.79-.14,3.61-.21,5.38.06,1.79.06,3.61.13,5.35.17,3.59.51,7.16.95,10.74.24,1.77.51,3.51.75,5.3.34,1.77.65,3.59.85,5.42.37,3.68.44,7.42,0,11.13-.14,1.87-.47,3.74-.92,5.6-.47,1.82-.99,3.73-1.56,5.5-.34.94-.72,1.83-1.09,2.72-.21.58-.52,1.1-.72,1.61,1.27.09,2.49.21,3.68.29,1.64.17,3.31.21,4.91.29,1.68.07,3.27.12,4.95.12s3.27.03,4.97,0c1.64-.05,3.24-.05,4.92-.21,1.67-.08,3.27-.17,4.94-.32.71-.03,1.4-.12,2.15-.17l.55-.12s-21.62-1.86-23.8-3.27Z"/>
  <path class="st3" d="M348.24,437.31c-2.73-1.09-5.38-2.38-8.11-3.56-1.36-.65-2.7-1.23-4.06-1.82l-4.02-1.91c-1.33-.65-2.66-1.21-3.96-1.91l-3.99-2.01c-1.33-.65-2.63-1.35-3.96-2.03l-3.85-2.15-3.89-2.23c-1.29-.72-2.48-1.57-3.78-2.34-1.26-.81-2.49-1.67-3.75-2.56-1.19-.82-2.35-1.79-3.54-2.71-1.16-.97-2.28-1.99-3.34-3.12-.55-.56-1.06-1.18-1.54-1.79-.23-.36-.47-.68-.68-1.09-.21-.36-.41-.64-.61-1.38v-.24l.11-1.58.24-1.53c.24-1.01.44-1.98.72-2.95.58-1.95,1.22-3.86,1.88-5.71.71-1.86,1.46-3.68,2.21-5.51.44-1.14.92-2.27,1.5-3.41-2.55-.47-5.11-.92-7.59-1.33-.55-.08-1.05-.12-1.64-.21h0c-2.69-.41-5.45-.73-8.19-.97-1.36,1.29-2.55,2.91-3.48,4.61-1.05,1.86-1.88,3.89-2.56,5.95-.68,2.03-1.16,4.18-1.6,6.28-.21,1.05-.41,2.14-.55,3.2-.14.92-.24,1.89-.34,2.83.75.85,1.54,1.79,2.39,2.64.89.93,1.84,1.86,2.83,2.75.95.89,1.91,1.79,3,2.59.95.85,2.01,1.65,3.04,2.43,4.26,3.19,8.69,5.98,13.33,8.54,4.64,2.51,9.48,4.82,14.31,6.83,2.43,1.06,4.92,2.04,7.37,2.97l3.75,1.3c1.19.44,2.49.89,3.72,1.21l2.83.85-.82,3.15-1.29,6.32c-.47,2.09-.82,4.21-1.16,6.36-.37,2.1-.79,4.21-1.09,6.36l-.89,6.36c-.35,2.1-.58,4.28-.82,6.39-.24,2.11-.54,4.25-.74,6.39l-.55,6.41-.47,6.41c-.17,2.18-.34,4.3-.41,6.48-.17,2.11-.31,4.22-.34,6.37-.21,4.29-.31,8.59-.41,12.88,0,.99,0,1.94-.03,2.96.79.62,1.63,1.16,2.53,1.71,1.64.95,3.51,1.84,5.45,2.59h-.03c.51.21,1.12.41,1.74.61h0c.45.13.86.34,1.3.48,3.07,1.02,6.24,1.77,9.48,2.42.27.03.51.07.82.1l.48-8.73.68-8.93c.21-2.93.48-5.94.82-8.87l.96-8.9c.34-3,.74-5.96,1.09-8.9.37-2.96.82-5.93,1.3-8.88l.78-4.45s.04-.12.04-.16c-1.53-.78-3-1.59-4.43-2.47-2.42-1.5-4.64-3.12-6.82-4.79l-1.74-1.33 1.37-1.29h0c1.84-2.11,3.85-4.01,5.9-5.83,1.95-1.79,3.79-3.61,5.32-5.56.79-.97,1.47-2.01,2.11-3.1.65-1.06,1.13-2.24,1.63-3.38.14-.48.31-.97.51-1.45l-6.41-2.71Z"/>
  <path class="st4" d="M376.23,371.67c-.47-5.42-1.29-10.86-2.42-16.19-1.13-5.35-2.69-10.57-4.74-15.54-2.07-5.03-4.8-9.74-8.11-13.94-3.34-4.25-7.36-7.93-11.79-11.04-4.44-3.16-9.27-5.83-14.15-8.51-4.77-2.55-10.09-4.24-15.37-5.68-5.35-1.36-10.77-2.38-16.29-3.06-5.42-.73-10.98-1.18-16.5-1.26-11.11-.24-22.19.7-33.07,2.97-4.81.92-9.2,2.14-13.43,3.48,23.42-7.45,45.03-6.24,45.03-6.24-93.34,0-93.37,76.33-93.34,87.75,0,11.37,2.21,18.34,2.45,29.47.28,11.15-5.89,17.21-5.89,17.21,2.18,1.42,23.8,3.27,23.8,3.27l-.55.08c.92-.08,1.84-.12,2.76-.24,1.64-.24,3.31-.41,4.91-.7,1.63-.24,3.31-.44,4.87-.8,1.64-.33,3.24-.56,4.88-.98,1.6-.41,3.24-.73,4.84-1.18,1.54-.44,3.17-.85,4.74-1.38,1.58-.44,3.21-.97,4.74-1.53,1.54-.53,3.07-1.14,4.6-1.74,1.6-.62,3.1-1.35,4.64-1.99l.55-.21.41.21c.82.32,1.5.7,2.25,1.05.75.41,1.4.82,2.15,1.18,1.37.85,2.73,1.74,4.02,2.76.65.48,1.29.97,1.88,1.53.34.24.64.53.99.8.23.29.54.58.82.85.61.62,1.19,1.18,1.67,1.82.59.62,1.07,1.29,1.54,1.94l.74.82-.99.8c-2.49,2.06-5.01,4.3-7.36,6.57-2.35,2.27-4.67,4.56-6.85,7.04-4.33,4.82-8.32,10.01-11.25,15.47-1.47,2.75-2.63,5.54-3.2,8.34-.65,2.78-.65,5.43,0,7.76.34,1.09.81,2.18,1.46,3.14.17.24.31.55.51.75l.75.95c.48.75.92,1.26,1.4,1.84,1.95,2.39,4.06,4.68,6.28,6.89,4.43,4.43,9.37,8.46,14.49,12.07,5.18,3.61,10.6,6.95,16.12,9.81,11.18,5.66,21.99,9.48,22.95,9.72.03-.2.03-.51.06-.79,0,.07,0,.1-.03.14-4.12-39.82,11.59-84.1,11.59-84.1-33.92-18.37-40.67-34.74-41.69-37.7-.07-.04-.1-.16-.21-.21h0l-.24-.32.06-.39c.11-1.23.28-2.27.38-3.41.21-1.09.38-2.21.59-3.32.44-2.22,1.02-4.41,1.74-6.55.71-2.15,1.53-4.26,2.65-6.24,1.17-2.03,2.53-3.93,4.3-5.51h0l.27-.26h.48c3.52,0,6.96.17,10.43.38,3.48.21,6.99.56,10.47.92,6.92.82,13.84,1.94,20.73,3.5,6.88,1.53,13.63,3.48,20.32,5.95,1.7.64,3.31,1.29,5.02,1.98,1.63.7,3.23,1.47,4.87,2.2,1.61.8,3.24,1.57,4.85,2.47,1.6.84,3.13,1.77,4.7,2.71h0l2.35,1.82-.31,2.21c-.41,2.67-.82,5.39-1.27,8.06-.41,2.71-.85,5.39-1.32,8.06-.34,1.33-.51,2.71-.79,4.04-.24,1.34-.51,2.67-.85,4-.58,2.67-1.3,5.35-2.11,8.03-.85,2.63-1.78,5.27-3.07,7.81-.65,1.27-1.33,2.53-2.11,3.68-.82,1.18-1.61,2.35-2.59,3.44-1.84,2.2-3.96,3.97-5.94,5.76-1.43,1.25-2.73,2.51-4.02,3.83,1.7.85,3.41,1.67,5.11,2.41,2.42.97,4.85,1.81,7.26,2.46,1.16.29,2.28.53,3.51.73,3.38-5.22,14.59-25.14,17.39-65.36l.1-.32c.11-3.92.24-7.85.17-11.83-.07-5.51-.31-10.96-.75-16.43ZM270.42,358.75c-13.95,26.2-12.51,53.37-12.51,53.37-11.53,4.82-31.3,7.68-31.3,7.68-21.38-39.71,5.96-93.2,5.96-93.2,78-18.78,96.47,26.52,96.47,26.52-46.66-4.82-58.63,5.62-58.63,5.62Z"/>
</svg>

